<?xml version="1.0" encoding="UTF-8"?>
<svg id="Layer_1" data-name="Layer 1" xmlns="http://www.w3.org/2000/svg" viewBox="0 0 500 500">
  <defs>
    <style>
      .cls-1 {
        fill: #fff;
      }

      .cls-2 {
        fill: #606060;
      }
    </style>
  </defs>
  <rect class="cls-2" x="-1332.95" y="-612.64" width="3590.4" height="2195.2"/>
  <g>
    <path class="cls-1" d="m173.16,274.33h-51.83c-2.48,0-4.7-1.49-5.66-3.79-.95-2.3-.44-4.92,1.32-6.67l43.36-43.36h-34.22c-2.93,0-5.31-2.38-5.31-5.31s2.37-5.31,5.31-5.31h41.27c3.11,0,5.9,1.86,7.09,4.74,1.2,2.89.55,6.18-1.66,8.4l-40.69,40.69h41.02c2.93,0,5.31,2.38,5.31,5.31s-2.37,5.31-5.31,5.31Zm-5.76-53.83h.04-.04Z"/>
    <polygon class="cls-1" points="403.25 283.35 356.95 210.61 449.56 210.61 403.25 283.35"/>
    <path class="cls-1" d="m239.64,354.6h-9.07v-20h-7.57v-9.07h31.74v9.07h-15.1v20Zm-166.48-19.84l-4.53-.18c-10.19-.41-18.18-8.73-18.18-18.94v-5.13h9.07v5.13c0,5.33,4.16,9.67,9.48,9.88l4.53.18-.36,9.06Zm136.23-.17h-31.74v-9.07h31.74v9.07Zm-45.35,0h-31.74v-9.07h31.74v9.07Zm-45.35,0h-31.74v-9.07h31.74v9.07Zm120.94-14.17h-9.07v-31.74h9.07v31.74Zm-180.12-23.52h-9.07v-31.74h9.07v31.74Zm180.12-21.83h-9.07v-31.74h9.07v31.74Zm-180.12-23.52h-9.07v-31.74h9.07v31.74Zm180.12-21.83h-9.07v-31.74h9.07v31.74Zm-180.12-23.52h-9.07v-31.74h9.07v31.74Zm180.12-21.83h-9.07v-20.02c0-1.66-.41-3.29-1.19-4.73l-2.17-3.99,7.97-4.33,2.17,3.98c1.5,2.77,2.29,5.91,2.29,9.07v20.01Zm-181.04-21.4l-7.7-4.79,2.4-3.85c3.48-5.59,9.5-8.93,16.1-8.93h12.58v9.07h-12.58c-3.45,0-6.59,1.74-8.4,4.65l-2.4,3.85Zm159.42-8.51h-31.74v-9.07h31.74v9.07Zm-45.35,0h-31.74v-9.07h31.74v9.07Zm-45.35,0h-31.74v-9.07h31.74v9.07Z"/>
  </g>
</svg>