<?xml version="1.0" encoding="UTF-8"?>
<svg id="Layer_1" data-name="Layer 1" xmlns="http://www.w3.org/2000/svg" viewBox="0 0 500 500">
  <defs>
    <style>
      .cls-1 {
        fill: #fff;
      }

      .cls-2 {
        fill: #606060;
      }
    </style>
  </defs>
  <rect class="cls-2" x="-2923.35" y="-1147.04" width="3590.4" height="2195.2"/>
  <g>
    <path class="cls-1" d="m249.77,249.52c-24.27,0-44.01-22.43-44.01-49.99s19.74-50,44.01-50,44.01,22.43,44.01,50-19.74,49.99-44.01,49.99Zm0-93.51c-20.69,0-37.53,19.52-37.53,43.52s16.84,43.51,37.53,43.51,37.53-19.52,37.53-43.51-16.84-43.52-37.53-43.52Z"/>
    <path class="cls-1" d="m322.6,350.47h-145.25c-5.25-.01-10.13-2.39-13.37-6.51-3.3-4.2-4.46-9.6-3.2-14.81,9.21-37.52,46.73-64.74,89.22-64.74s80,27.22,89.22,64.73c1.28,5.19.13,10.58-3.15,14.78-3.26,4.17-8.17,6.55-13.46,6.55Zm-145.21-6.48h145.21c3.29,0,6.33-1.48,8.36-4.07,2.05-2.62,2.77-5.99,1.96-9.23-8.52-34.65-43.4-59.8-82.92-59.8s-74.41,25.15-82.92,59.8c-.79,3.26-.06,6.64,2,9.26,2.02,2.57,5.05,4.04,8.32,4.04Z"/>
  </g>
</svg>