<?xml version="1.0" encoding="UTF-8"?>
<svg id="Layer_1" data-name="Layer 1" xmlns="http://www.w3.org/2000/svg" viewBox="0 0 500 500">
  <defs>
    <style>
      .cls-1 {
        fill: #fff;
      }

      .cls-2 {
        fill: #606060;
      }
    </style>
  </defs>
  <rect class="cls-2" x="-280.15" y="-51.04" width="3590.4" height="2195.2"/>
  <path class="cls-1" d="m257.48,330.42c-1.71,0-3.43-.64-4.75-1.94-2.69-2.62-2.74-6.93-.12-9.62l64.8-66.39c7.61-7.8,11.73-18.1,11.6-28.98-.13-10.89-4.5-21.08-12.3-28.69-15.57-15.19-40.26-15.51-56.2-.74l-80.81,74.83c-5.44,5.04-8.54,11.9-8.72,19.32-.19,7.42,2.56,14.43,7.74,19.73,10.41,10.67,27.64,10.94,38.4.62l65.07-62.53c4.69-4.52,4.85-12.03.35-16.74-4.48-4.71-11.96-4.93-16.7-.5l-58.95,55.05c-2.74,2.56-7.04,2.42-9.61-.33-2.56-2.75-2.41-7.05.33-9.61l58.95-55.05c10.18-9.5,26.25-9.01,35.83,1.06,9.67,10.09,9.34,26.22-.76,35.94l-65.08,62.54c-16.13,15.48-41.95,15.07-57.56-.92-7.77-7.95-11.89-18.45-11.61-29.58.28-11.12,4.92-21.41,13.08-28.96l80.8-74.82c21.27-19.7,54.18-19.26,74.94.98,10.41,10.15,16.23,23.74,16.41,38.27.18,14.52-5.31,28.25-15.47,38.65l-64.8,66.39c-1.33,1.36-3.1,2.05-4.87,2.05Z"/>
</svg>