<?xml version="1.0" encoding="UTF-8"?>
<svg id="Layer_1" data-name="Layer 1" xmlns="http://www.w3.org/2000/svg" viewBox="0 0 500 500">
  <defs>
    <style>
      .cls-1 {
        fill: #fff;
      }

      .cls-2 {
        fill: #606060;
      }
    </style>
  </defs>
  <rect class="cls-2" x="-808.15" y="-612.64" width="3590.4" height="2195.2"/>
  <g>
    <path class="cls-1" d="m312.44,345.37h-124.89c-18.15,0-32.92-14.77-32.92-32.92v-124.89c0-18.15,14.77-32.92,32.92-32.92h124.89c18.16,0,32.93,14.77,32.93,32.92v124.89c0,18.15-14.77,32.92-32.93,32.92Zm-124.89-180.12c-12.3,0-22.31,10.01-22.31,22.31v124.89c0,12.3,10.01,22.31,22.31,22.31h124.89c12.3,0,22.32-10.01,22.32-22.31v-124.89c0-12.3-10.01-22.31-22.32-22.31h-124.89Z"/>
    <circle class="cls-1" cx="217.03" cy="232.27" r="13.24"/>
    <path class="cls-1" d="m184.06,286.37c0-19,15.42-34.42,34.42-34.42s34.42,15.42,34.42,34.42"/>
    <rect class="cls-1" x="263.29" y="269.14" width="37.87" height="9.34" rx="4.22" ry="4.22"/>
    <path class="cls-1" d="m268.73,235.62h43.53c3.01,0,5.44,2.44,5.44,5.44h0c0,3.01-2.44,5.44-5.44,5.44h-43.53c-3.01,0-5.44-2.44-5.44-5.44h0c0-3.01,2.44-5.44,5.44-5.44Z"/>
  </g>
</svg>