<?xml version="1.0" encoding="UTF-8"?>
<svg id="Layer_1" data-name="Layer 1" xmlns="http://www.w3.org/2000/svg" viewBox="0 0 500 500">
  <defs>
    <style>
      .cls-1 {
        fill: #fff;
      }

      .cls-2 {
        fill: #606060;
      }
    </style>
  </defs>
  <rect class="cls-2" x="-280.15" y="-1147.04" width="3590.4" height="2195.2"/>
  <g>
    <path class="cls-1" d="m312.44,345.37h-124.89c-18.15,0-32.92-14.77-32.92-32.92v-124.89c0-18.15,14.77-32.92,32.92-32.92h124.89c18.15,0,32.92,14.77,32.92,32.92v124.89c0,18.15-14.77,32.92-32.92,32.92Zm-124.89-180.12c-12.3,0-22.31,10.01-22.31,22.31v124.89c0,12.3,10.01,22.31,22.31,22.31h124.89c12.3,0,22.31-10.01,22.31-22.31v-124.89c0-12.3-10.01-22.31-22.31-22.31h-124.89Z"/>
    <ellipse class="cls-1" cx="222.83" cy="224.56" rx="11.56" ry="14.65"/>
    <ellipse class="cls-1" cx="278.39" cy="224.56" rx="11.56" ry="14.65"/>
    <path class="cls-1" d="m248.75,293.01c-14.74,0-29.5-6.84-43.91-20.34-1.6-1.5-1.68-4.01-.18-5.61,1.51-1.6,4.01-1.68,5.61-.18,13.44,12.59,27.01,18.65,40.11,18.16,12.12-.5,24.5-6.61,36.81-18.16,1.6-1.5,4.11-1.42,5.61.18,1.5,1.6,1.42,4.11-.18,5.61-13.74,12.88-27.84,19.71-41.91,20.3-.65.03-1.31.04-1.96.04Z"/>
    <path class="cls-1" d="m271.89,313.03c-.79,0-1.62-.04-2.48-.11-10.9-.96-19.12-10.05-19.12-21.15,0-1.39,1.12-2.52,2.52-2.52s2.52,1.13,2.52,2.52c0,8.6,6.11,15.39,14.53,16.13,5.93.52,10.35-1.21,13.06-5.17,3.89-5.68,3.76-15.8-.31-24.05-.62-1.25-.1-2.76,1.15-3.37,1.23-.6,2.75-.1,3.37,1.14,4.9,9.94,4.88,21.91-.06,29.12-2.39,3.49-6.93,7.45-15.18,7.45Z"/>
  </g>
</svg>