<?xml version="1.0" encoding="UTF-8"?>
<svg id="Layer_1" data-name="Layer 1" xmlns="http://www.w3.org/2000/svg" viewBox="0 0 500 500">
  <defs>
    <style>
      .cls-1 {
        fill: #fff;
      }

      .cls-2 {
        fill: #606060;
      }
    </style>
  </defs>
  <rect class="cls-2" x="-280.15" y="-612.64" width="3590.4" height="2195.2"/>
  <g>
    <path class="cls-1" d="m312.44,345.37h-124.89c-18.15,0-32.92-14.77-32.92-32.92v-124.89c0-18.15,14.77-32.92,32.92-32.92h124.89c18.15,0,32.92,14.77,32.92,32.92v124.89c0,18.15-14.77,32.92-32.92,32.92Zm-124.89-180.12c-12.3,0-22.31,10.01-22.31,22.31v124.89c0,12.3,10.01,22.31,22.31,22.31h124.89c12.3,0,22.31-10.01,22.31-22.31v-124.89c0-12.3-10.01-22.31-22.31-22.31h-124.89Z"/>
    <circle class="cls-1" cx="215.17" cy="214.99" r="14.28"/>
    <path class="cls-1" d="m161.71,307.88l-7-8.1,34.06-29.43c6.33-5.46,15.57-5.55,21.98-.2l14.15,11.84c2.71,2.26,6.6,2.27,9.26.02l42.53-35.22c6.23-5.15,15.17-5.05,21.25.21l45.59,38.98-6.95,8.14-45.62-39c-2.15-1.86-5.26-1.88-7.44-.08l-42.49,35.18c-6.61,5.58-16.29,5.58-22.98-.01l-14.15-11.84c-2.33-1.94-5.83-1.91-8.13.08l-34.05,29.43Z"/>
  </g>
</svg>