<?xml version="1.0" encoding="UTF-8"?>
<svg id="Layer_1" data-name="Layer 1" xmlns="http://www.w3.org/2000/svg" viewBox="0 0 500 500">
  <defs>
    <style>
      .cls-1 {
        fill: #fff;
      }

      .cls-2 {
        fill: #606060;
      }
    </style>
  </defs>
  <rect class="cls-2" x="-1332.95" y="-1147.04" width="3590.4" height="2195.2"/>
  <g>
    <path class="cls-1" d="m249.98,343.53c-22.74,0-44.52-5.94-63.07-17.18l-45.07,11.24,9.37-47.73c-6.9-12.52-10.4-25.92-10.4-39.86,0-51.56,48.97-93.51,109.17-93.53h.05c60.21.02,109.17,41.97,109.17,93.53s-49,93.53-109.22,93.53Zm-61.99-24.14l1.16.73c17.78,11.07,38.82,16.93,60.82,16.93,56.65,0,102.74-39.05,102.74-87.05s-46.07-87.04-102.71-87.05c-56.64,0-102.72,39.06-102.72,87.05,0,13.19,3.41,25.88,10.14,37.71l.6,1.05-7.87,40.07,37.83-9.44Z"/>
    <path class="cls-1" d="m248.53,281.4h-51.2c-3.37,0-6.1-2.74-6.1-6.1v-4.31c0-3.37,2.74-6.1,6.1-6.1h51.2c3.36,0,6.1,2.74,6.1,6.1v4.31c0,3.36-2.74,6.1-6.1,6.1Zm-51.2-13.29c-1.59,0-2.88,1.29-2.88,2.88v4.31c0,1.59,1.29,2.87,2.88,2.87h51.2c1.59,0,2.87-1.29,2.87-2.87v-4.31c0-1.59-1.29-2.88-2.87-2.88h-51.2Z"/>
    <path class="cls-1" d="m301.86,254.17h-105.03c-3.42,0-6.21-2.79-6.21-6.21v-5.31c0-3.42,2.79-6.21,6.21-6.21h105.03c3.42,0,6.21,2.79,6.21,6.21v5.31c0,3.42-2.79,6.21-6.21,6.21Zm-105.03-13.29c-.97,0-1.77.79-1.77,1.77v5.31c0,.97.79,1.77,1.77,1.77h105.03c.97,0,1.77-.79,1.77-1.77v-5.31c0-.97-.79-1.77-1.77-1.77h-105.03Z"/>
  </g>
</svg>