<?xml version="1.0" encoding="UTF-8"?>
<svg id="Layer_1" data-name="Layer 1" xmlns="http://www.w3.org/2000/svg" viewBox="0 0 500 500">
  <defs>
    <style>
      .cls-1 {
        fill: #fff;
      }

      .cls-2 {
        fill: #606060;
      }
    </style>
  </defs>
  <rect class="cls-2" x="-1860.95" y="-1147.04" width="3590.4" height="2195.2"/>
  <g>
    <path class="cls-1" d="m209.12,242.3h-49.57c-8.76,0-15.89-7.13-15.89-15.89v-57.27c0-8.76,7.13-15.89,15.89-15.89h49.57c8.76,0,15.89,7.13,15.89,15.89v57.27c0,8.76-7.13,15.89-15.89,15.89Zm-49.57-82.58c-5.19,0-9.41,4.22-9.41,9.41v57.27c0,5.19,4.22,9.41,9.41,9.41h49.57c5.19,0,9.41-4.22,9.41-9.41v-57.27c0-5.19-4.22-9.41-9.41-9.41h-49.57Z"/>
    <path class="cls-1" d="m209.12,355.72h-49.57c-8.76,0-15.89-7.13-15.89-15.89v-57.27c0-8.76,7.13-15.89,15.89-15.89h49.57c8.76,0,15.89,7.13,15.89,15.89v57.27c0,8.76-7.13,15.89-15.89,15.89Zm-49.57-82.58c-5.19,0-9.41,4.22-9.41,9.41v57.27c0,5.19,4.22,9.41,9.41,9.41h49.57c5.19,0,9.41-4.22,9.41-9.41v-57.27c0-5.19-4.22-9.41-9.41-9.41h-49.57Z"/>
    <path class="cls-1" d="m325.25,355.72h-49.56c-8.76,0-15.89-7.13-15.89-15.89v-57.27c0-8.76,7.13-15.89,15.89-15.89h49.56c8.76,0,15.89,7.13,15.89,15.89v57.27c0,8.76-7.13,15.89-15.89,15.89Zm-49.56-82.58c-5.19,0-9.41,4.22-9.41,9.41v57.27c0,5.19,4.22,9.41,9.41,9.41h49.56c5.19,0,9.41-4.22,9.41-9.41v-57.27c0-5.19-4.22-9.41-9.41-9.41h-49.56Z"/>
    <path class="cls-1" d="m299.96,251.46c-4.24,0-8.24-1.65-11.24-4.65l-35.05-35.05c-3-3-4.65-6.99-4.65-11.24s1.65-8.24,4.65-11.24l40.5-40.5c6.01-6.01,16.47-6,22.48,0l35.05,35.05c6.19,6.2,6.19,16.28,0,22.48l-40.5,40.5c-3,3-6.99,4.65-11.24,4.65Zm5.45-100.85c-2.51,0-4.88.98-6.65,2.76l-40.5,40.5c-1.78,1.78-2.76,4.14-2.76,6.65s.98,4.88,2.75,6.65l35.05,35.05c3.56,3.56,9.75,3.55,13.3,0l40.5-40.5c3.67-3.67,3.67-9.64,0-13.31l-35.05-35.05c-1.78-1.78-4.14-2.75-6.65-2.75Z"/>
  </g>
</svg>