<?xml version="1.0" encoding="UTF-8"?>
<svg id="Layer_1" data-name="Layer 1" xmlns="http://www.w3.org/2000/svg" viewBox="0 0 500 500">
  <defs>
    <style>
      .cls-1 {
        fill: #fff;
      }

      .cls-2 {
        fill: #606060;
      }
    </style>
  </defs>
  <rect class="cls-2" x="-689.75" y="-612.64" width="3590.4" height="2195.2"/>
  <rect class="cls-2" x="-1305.75" y="-847.6" width="3590.4" height="2195.2"/>
  <g>
    <g>
      <path class="cls-1" d="m251.81,298.44c-23.98,0-43.48-19.51-43.48-43.48v-66.07c0-23.98,19.51-43.49,43.48-43.49s43.48,19.51,43.48,43.49v66.07c0,23.98-19.51,43.48-43.48,43.48Zm0-146.01c-20.1,0-36.46,16.36-36.46,36.46v66.07c0,20.1,16.36,36.46,36.46,36.46s36.46-16.36,36.46-36.46v-66.07c0-20.11-16.36-36.46-36.46-36.46Z"/>
      <path class="cls-1" d="m251.81,298.93c-24.25,0-43.98-19.73-43.98-43.98v-66.07c0-24.25,19.73-43.98,43.98-43.98s43.98,19.73,43.98,43.98v66.07c0,24.25-19.73,43.98-43.98,43.98Zm0-153.04c-23.7,0-42.99,19.29-42.99,42.99v66.07c0,23.7,19.28,42.99,42.99,42.99s42.99-19.28,42.99-42.99v-66.07c0-23.71-19.28-42.99-42.99-42.99Zm0,146.01c-20.38,0-36.95-16.58-36.95-36.95v-66.07c0-20.38,16.58-36.96,36.95-36.96s36.95,16.58,36.95,36.96v66.07c0,20.38-16.58,36.95-36.95,36.95Zm0-138.99c-19.83,0-35.96,16.13-35.96,35.97v66.07c0,19.83,16.13,35.96,35.96,35.96s35.96-16.13,35.96-35.96v-66.07c0-19.83-16.13-35.97-35.96-35.97Z"/>
    </g>
    <g>
      <path class="cls-1" d="m250.16,323.9c-18.31,0-36.25-7.74-49.47-21.41-13.97-14.43-21.3-34.12-20.1-54.01.12-1.95,1.91-3.49,3.71-3.3,1.94.12,3.41,1.78,3.3,3.71-1.07,17.93,5.54,35.69,18.14,48.71,12.28,12.69,29.09,19.57,45.98,19.25,16.34-.45,32.3-7.89,43.78-20.43,11.97-13.08,17.98-29.96,16.9-47.53-.12-1.94,1.35-3.6,3.29-3.72,1.89-.15,3.6,1.35,3.72,3.29,1.2,19.49-5.46,38.21-18.73,52.7-12.76,13.94-30.53,22.21-48.77,22.7-.58.02-1.17.02-1.75.02Z"/>
      <path class="cls-1" d="m250.16,324.39c-18.41,0-36.57-7.86-49.83-21.56-14.07-14.53-21.44-34.36-20.24-54.39.06-1.08.59-2.12,1.45-2.84.81-.68,1.83-1.02,2.81-.91,2.18.13,3.87,2.03,3.74,4.23-1.07,17.79,5.5,35.41,18,48.34,12.06,12.46,28.7,19.4,45.61,19.1,16.21-.44,32.04-7.83,43.42-20.27,11.88-12.98,17.84-29.73,16.77-47.17-.07-1.07.29-2.1,1-2.9.71-.8,1.69-1.28,2.76-1.34,1.02-.08,2.04.26,2.85.96.82.71,1.32,1.73,1.39,2.8,1.2,19.62-5.49,38.47-18.86,53.07-12.85,14.03-30.75,22.37-49.12,22.87-.58.02-1.17.02-1.76.02Zm-66.16-78.74c-.65,0-1.29.25-1.82.7-.65.55-1.05,1.33-1.1,2.15-1.19,19.75,6.09,39.3,19.96,53.64,13.07,13.51,30.97,21.26,49.12,21.26.58,0,1.16,0,1.73-.02,18.1-.49,35.75-8.71,48.42-22.54,13.18-14.4,19.78-32.98,18.6-52.34-.05-.8-.43-1.57-1.05-2.11-.61-.53-1.36-.78-2.13-.72-.82.05-1.55.41-2.09,1.01-.53.6-.8,1.38-.75,2.18,1.08,17.71-4.97,34.72-17.03,47.9-11.57,12.64-27.65,20.14-44.13,20.59-17.21.3-34.1-6.75-46.35-19.41-12.7-13.12-19.36-31.02-18.28-49.09.1-1.66-1.17-3.09-2.83-3.19-.09,0-.18-.01-.26-.01Z"/>
    </g>
    <g>
      <path class="cls-1" d="m277.58,354.6h-51.54c-1.94,0-3.51-1.57-3.51-3.51s1.57-3.51,3.51-3.51h22.25v-27.21c0-1.94,1.57-3.51,3.51-3.51s3.51,1.57,3.51,3.51v27.21h22.25c1.94,0,3.51,1.57,3.51,3.51s-1.57,3.51-3.51,3.51Z"/>
      <path class="cls-1" d="m277.58,355.1h-51.54c-2.21,0-4.01-1.8-4.01-4.01s1.8-4.01,4.01-4.01h21.76v-26.71c0-2.21,1.8-4.01,4.01-4.01s4.01,1.8,4.01,4.01v26.71h21.76c2.21,0,4.01,1.8,4.01,4.01s-1.8,4.01-4.01,4.01Zm-51.54-7.03c-1.66,0-3.02,1.35-3.02,3.02s1.35,3.02,3.02,3.02h51.54c1.66,0,3.02-1.35,3.02-3.02s-1.35-3.02-3.02-3.02h-22.75v-27.71c0-1.66-1.35-3.02-3.02-3.02s-3.02,1.35-3.02,3.02v27.71h-22.75Z"/>
    </g>
  </g>
</svg>