<?xml version="1.0" encoding="UTF-8"?>
<svg id="Layer_1" data-name="Layer 1" xmlns="http://www.w3.org/2000/svg" viewBox="0 0 500 500">
  <defs>
    <style>
      .cls-1 {
        fill: #fff;
      }

      .cls-2 {
        fill: #606060;
      }
    </style>
  </defs>
  <rect class="cls-2" x="-808.15" y="-1147.04" width="3590.4" height="2195.2"/>
  <g>
    <path class="cls-1" d="m298.93,350.31h-137.93v-200.62h137.93c22.09,0,40.07,17.97,40.07,40.07v120.49c0,22.09-17.97,40.07-40.07,40.07Zm-131.44-6.48h131.44c18.52,0,33.58-15.07,33.58-33.58v-120.49c0-18.52-15.07-33.58-33.58-33.58h-131.44v187.65Z"/>
    <path class="cls-1" d="m248.14,244.87c-14.34,0-26.01-11.66-26.01-26s11.67-26.01,26.01-26.01,26,11.67,26,26.01-11.66,26-26,26Zm0-45.53c-10.77,0-19.53,8.76-19.53,19.53s8.76,19.52,19.53,19.52,19.52-8.76,19.52-19.52-8.76-19.53-19.52-19.53Z"/>
    <path class="cls-1" d="m301.81,298.39h-100.52v-3.24h-3.2c0-28.6,23.26-51.86,51.86-51.86s51.85,23.26,51.85,51.86v3.24Zm-97.11-6.48h90.52c-1.67-23.51-21.33-42.13-45.26-42.13s-43.59,18.62-45.26,42.13Z"/>
  </g>
</svg>