<?xml version="1.0" encoding="UTF-8"?>
<svg id="Layer_1" data-name="Layer 1" xmlns="http://www.w3.org/2000/svg" viewBox="0 0 500 500">
  <defs>
    <style>
      .cls-1 {
        fill: #fff;
      }

      .cls-2 {
        fill: #606060;
      }
    </style>
  </defs>
  <rect class="cls-2" x="-2395.35" y="-1147.04" width="3590.4" height="2195.2"/>
  <g>
    <path class="cls-1" d="m314.8,347.88h-129.61c-18.24,0-33.08-14.84-33.08-33.08v-129.61c0-18.24,14.84-33.08,33.08-33.08h129.61c18.24,0,33.08,14.84,33.08,33.08v129.61c0,18.24-14.84,33.08-33.08,33.08Zm-129.61-189.29c-14.67,0-26.6,11.93-26.6,26.6v129.61c0,14.67,11.93,26.6,26.6,26.6h129.61c14.67,0,26.6-11.93,26.6-26.6v-129.61c0-14.67-11.93-26.6-26.6-26.6h-129.61Z"/>
    <rect class="cls-1" x="155.36" y="254.11" width="145.12" height="6.48"/>
    <rect class="cls-1" x="239.53" y="202.91" width="55.51" height="6.48"/>
    <circle class="cls-1" cx="200.03" cy="206.15" r="13.74"/>
  </g>
</svg>