<?xml version="1.0" encoding="UTF-8"?>
<svg id="Layer_1" data-name="Layer 1" xmlns="http://www.w3.org/2000/svg" viewBox="0 0 500 500">
  <defs>
    <style>
      .cls-1 {
        fill: #fff;
      }

      .cls-2 {
        fill: #606060;
      }
    </style>
  </defs>
  <rect class="cls-2" x="-2395.35" y="-612.64" width="3590.4" height="2195.2"/>
  <g>
    <path class="cls-1" d="m195.88,351.83c-.94,0-1.89-.2-2.79-.63-2.25-1.07-3.64-3.27-3.64-5.76l.04-3.97c.06-6.51.15-17.21.18-26.82h-18.95c-12.13,0-21.99-9.86-21.99-21.99v-122.44c0-12.13,9.87-21.99,21.99-21.99l158.54-.05c12.13,0,21.99,9.87,21.99,21.99v122.44c0,12.13-9.87,21.99-21.99,21.99h-82.42l-47.09,35.88c-1.08.89-2.46,1.35-3.87,1.35Zm-2.48-9.85c-.07.05-.14.1-.21.16l.21-.16Zm-22.67-183.15c-6.28,0-11.38,5.11-11.38,11.38v122.44c0,6.28,5.11,11.38,11.38,11.38h29.57v5.31c0,8.82-.08,19.61-.15,27.5l43.12-32.85h86c6.28,0,11.38-5.11,11.38-11.38v-122.44c0-5.96-4.61-10.87-10.44-11.35h-.94s-158.54,0-158.54,0Z"/>
    <path class="cls-1" d="m237.75,270.84c-1.22,0-2.45-.42-3.45-1.28-2.22-1.91-2.48-5.26-.57-7.48l20.32-23.66h-30.78l32.43-44.35c1.72-2.36,5.05-2.88,7.41-1.15,2.36,1.73,2.88,5.05,1.15,7.41l-20.09,27.48h32.98l-35.37,41.19c-1.05,1.22-2.53,1.85-4.03,1.85Z"/>
  </g>
</svg>