<?xml version="1.0" encoding="UTF-8"?>
<svg id="Layer_1" data-name="Layer 1" xmlns="http://www.w3.org/2000/svg" viewBox="0 0 500 500">
  <defs>
    <style>
      .cls-1 {
        fill: #fff;
      }

      .cls-2 {
        fill: #606060;
      }
    </style>
  </defs>
  <rect class="cls-2" x="-1860.95" y="-612.64" width="3590.4" height="2195.2"/>
  <g>
    <path class="cls-1" d="m222.33,154.21h-21l-45.98,135.18h18l14.1-42.49h47.98l12.29,36.23,14.19-13.01-39.63-115.91h.05Zm-31.29,79.04l13.24-39.09c2.63-8.25,4.76-16.51,6.8-24.49h.41c2,7.75,4.04,15.78,6.98,24.67l13.24,38.86h-40.68v.05Z"/>
    <path class="cls-1" d="m221.08,345.79l5.04-32.54,83.7-74.73c4.18-3.72,9.59-5.6,15.11-5.28,5.58.32,10.69,2.79,14.42,6.96,7.68,8.6,6.93,21.85-1.68,29.53l-83.7,74.73-32.89,1.33Zm13.5-27.94l-2.86,18.43,18.63-.76,81.28-72.56c4.87-4.35,5.3-11.86.95-16.72-2.11-2.36-5.01-3.77-8.17-3.95-3.18-.19-6.2.88-8.56,2.99l-81.27,72.56Z"/>
  </g>
</svg>