<svg viewBox="0 0 48 48" id="Layer_2" data-name="Layer 2" xmlns="http://www.w3.org/2000/svg" fill="#000000" transform="rotate(90)"><g id="SVGRepo_bgCarrier" stroke-width="0"></g><g id="SVGRepo_tracerCarrier" stroke-linecap="round" stroke-linejoin="round"></g><g id="SVGRepo_iconCarrier"><defs><style>.cls-1{fill:none;stroke:#4f4f4f;stroke-linecap:round;stroke-linejoin:round;}</style></defs><path class="cls-1" d="M5.5,17.83a4.35,4.35,0,0,0,6.17,0l9.25,9.25-3.09,3.09a4.36,4.36,0,0,0,0,6.16l7.71-7.71L39.42,42.5H42.5V39.42L28.62,25.54,30.17,24l3.08-3.08,3.08-3.09a4.36,4.36,0,0,0-6.16,0l-3.09,3.09-9.25-9.25a4.35,4.35,0,0,0,0-6.17L14.75,8.58,8.58,14.75Z"></path><line class="cls-1" x1="28.62" y1="25.54" x2="25.54" y2="28.62"></line></g></svg>